<?xml version="1.0"?>
<svg xmlns="http://www.w3.org/2000/svg" xmlns:xlink="http://www.w3.org/1999/xlink" version="1.1" id="Capa_1" x="0px" y="0px" width="512px" height="512px" viewBox="0 0 511.398 511.398" style="enable-background:new 0 0 511.398 511.398;" xml:space="preserve" class=""><g><g>
	<g>
		<path d="M477.549,182.379H329.018V33.847c0-18.69-15.154-33.844-33.844-33.844H216.22c-18.69,0-33.844,15.153-33.844,33.844    v148.526H33.844C15.153,182.373,0,197.526,0,216.216v78.966c0,18.691,15.153,33.844,33.844,33.844h148.532v148.527    c0,18.689,15.153,33.842,33.844,33.842h78.96c18.691,0,33.844-15.152,33.844-33.842V329.026h148.533    c18.689,0,33.842-15.152,33.842-33.844v-78.966C511.393,197.526,496.246,182.379,477.549,182.379z" data-original="#000000" class="active-path" data-old_color="#00A8FF" fill="#00C6FF"/>
	</g>
</g></g> </svg>
