<?xml version="1.0"?>
<svg xmlns="http://www.w3.org/2000/svg" id="Layer_1" enable-background="new 0 0 511.34 511.34" height="512px" viewBox="0 0 511.34 511.34" width="512px" class=""><g><path d="m175.974 49.719-170.67 192c-7.073 7.957-7.073 19.947 0 27.904l170.67 192c12.788 14.386 36.695 5.326 36.695-13.952v-384c.001-19.248-23.885-28.36-36.695-13.952z" fill="#fff3e4" data-original="#FFF3E4" class="active-path" data-old_color="#fff3e4" style="fill:#9EE0FF"/><path d="m383.67 181.341h-64.33v-117.67c0-19.248-23.886-28.36-36.695-13.952l-170.67 192c-7.073 7.957-7.073 19.947 0 27.904l170.67 192c12.782 14.378 36.695 5.286 36.695-13.952v-117.67h64.33c35.106 0 59.151 14.841 73.508 45.37 11.712 24.905 12.16 50.896 12.163 51.09.065 11.456 9.328 20.88 21.06 20.88 11.574-.033 20.94-9.426 20.94-21v-117.34c-.001-70.391-57.274-127.66-127.671-127.66z" fill="#ffebd2" data-original="#FFEBD2" class="" data-old_color="#ffebd2" style="fill:#48BDF3"/></g> </svg>
