<?xml version="1.0" encoding="iso-8859-1"?>
<!-- Generator: Adobe Illustrator 19.0.0, SVG Export Plug-In . SVG Version: 6.00 Build 0)  -->
<svg version="1.1" id="Layer_1" xmlns="http://www.w3.org/2000/svg" xmlns:xlink="http://www.w3.org/1999/xlink" x="0px" y="0px"
	 viewBox="0 0 504.124 504.124" style="enable-background:new 0 0 504.124 504.124;" xml:space="preserve">
<path style="fill:#E4E7E7;" d="M441.108,244.578l-1.182-16.148l10.24-10.24c45.292-45.292,45.292-119.335,0-164.234
	c-45.292-45.292-118.942-45.292-164.234,0l-10.24,10.24c-5.12-0.788-10.634-1.182-16.148-1.182l17.723-17.723
	c50.018-50.018,131.545-50.412,181.563,0c50.018,50.018,50.018,131.545,0,181.563C458.831,226.855,441.108,244.578,441.108,244.578z
	 M228.825,64.591l-10.24-10.24c-45.292-45.292-119.335-45.292-164.234,0c-45.686,44.898-45.686,118.942,0,164.234l10.24,10.24
	c-0.788,5.12-1.182,10.634-1.182,16.148L45.686,227.25c-50.018-50.018-50.412-131.545,0-181.563
	c50.018-50.018,131.545-50.018,181.563,0l17.723,17.723C239.458,63.409,233.945,63.803,228.825,64.591z M63.015,259.545
	l1.182,16.148l-10.24,10.24C8.665,331.225,8.665,405.268,53.563,450.166c45.292,45.292,118.942,45.292,164.234,0l10.24-10.24
	c5.12,0.788,10.634,1.182,16.148,1.182l-17.723,17.723c-50.018,50.018-131.545,50.412-181.563,0.394S-5.12,327.68,45.292,277.661
	L63.015,259.545z M275.298,439.532l10.24,10.24c45.292,45.292,119.335,45.292,164.234,0c45.292-45.292,45.292-118.942-0.394-164.234
	l-10.24-10.24c0.788-5.12,1.182-10.634,1.182-16.148l17.723,17.723c50.018,50.018,50.412,131.545,0.394,181.563
	s-131.545,50.018-181.563-0.394l-17.723-17.723C264.665,440.714,270.178,440.32,275.298,439.532z"/>
<path style="fill:#E2574C;" d="M252.062,0C113.034,0,0,113.034,0,252.062s112.64,252.062,252.062,252.062
	c139.028,0,252.062-113.034,252.062-252.062S391.089,0,252.062,0z M252.062,378.092c-69.711,0-126.031-56.32-126.031-126.031
	s56.32-126.031,126.031-126.031s126.031,56.32,126.031,126.031S321.772,378.092,252.062,378.092z"/>
<path style="fill:#D95449;" d="M252.062,95.705c-86.252,0-156.357,70.105-156.357,156.357s70.105,156.357,156.357,156.357
	s156.357-70.105,156.357-156.357S338.314,95.705,252.062,95.705z M252.062,378.092c-69.711,0-126.031-56.32-126.031-126.031
	s56.32-126.031,126.031-126.031s126.031,56.32,126.031,126.031S321.772,378.092,252.062,378.092z"/>
<path style="fill:#E5685E;" d="M252.062,35.446c-119.729,0-216.615,96.886-216.615,216.615s96.886,216.615,216.615,216.615
	s216.615-96.886,216.615-216.615S371.791,35.446,252.062,35.446z M252.062,452.923c-111.065,0-200.862-89.797-200.862-200.862
	S140.997,51.2,252.062,51.2s200.862,89.797,200.862,200.862S363.126,452.923,252.062,452.923z"/>
<path style="fill:#EFEFEF;" d="M193.378,363.52c-22.843-11.815-41.354-30.72-53.169-53.169l-90.978,91.372
	c14.966,20.086,32.689,38.203,53.169,53.169L193.378,363.52z M310.351,140.209c22.843,11.815,41.354,30.326,53.169,53.169
	l91.372-90.978c-14.966-20.086-33.083-38.203-53.169-53.169L310.351,140.209z M49.231,102.4l90.978,90.978
	c11.815-22.843,30.326-41.354,53.169-53.169L102.4,49.231C82.314,64.197,64.197,82.314,49.231,102.4z M454.892,401.723
	l-90.978-90.978c-11.815,22.843-30.326,41.354-53.169,53.169l90.978,90.978C421.809,439.926,439.926,421.809,454.892,401.723z"/>
<path style="fill:#E6E6E6;" d="M332.8,118.154l-22.055,22.055c22.843,11.815,41.354,30.326,53.169,53.169l22.055-22.055
	C372.578,149.662,354.462,131.151,332.8,118.154z M140.209,310.351L118.154,332.8c12.997,21.662,31.508,39.778,53.169,53.169
	l22.055-22.055C170.929,351.705,152.418,333.194,140.209,310.351z M310.745,363.914l22.055,22.055
	c21.662-12.997,39.778-31.508,53.169-53.169l-22.055-22.055C351.705,333.194,333.194,351.705,310.745,363.914z M193.772,140.603
	l-22.449-22.449c-21.662,13.391-39.778,31.508-53.169,53.169l22.055,22.055C152.418,170.929,170.929,152.418,193.772,140.603z"/>
<path style="fill:#F1F1F1;" d="M85.858,365.095l-11.422,11.422c14.572,20.48,32.295,38.597,53.169,53.169l11.422-11.422
	C118.154,403.692,100.037,385.969,85.858,365.095z M418.265,365.095c-14.178,20.874-32.295,38.991-53.169,53.169l11.422,11.422
	c20.48-14.572,38.597-32.689,53.169-53.169L418.265,365.095z M85.858,139.028c14.178-20.874,32.295-38.991,53.169-53.169L128,74.831
	C107.52,89.403,89.403,107.52,74.831,128L85.858,139.028z M418.265,139.028l11.422-11.422
	c-14.572-20.48-32.689-38.597-53.169-53.169l-11.422,11.422C385.969,100.037,403.692,118.154,418.265,139.028z"/>
<g>
</g>
<g>
</g>
<g>
</g>
<g>
</g>
<g>
</g>
<g>
</g>
<g>
</g>
<g>
</g>
<g>
</g>
<g>
</g>
<g>
</g>
<g>
</g>
<g>
</g>
<g>
</g>
<g>
</g>
</svg>
