<svg height="512pt" viewBox="0 0 512 512.0002" width="512pt" xmlns="http://www.w3.org/2000/svg"><path d="m301.636719 170c3.066406 0 6.117187-.953125 8.683593-2.820312 4.351563-3.160157 6.640626-8.441407 5.972657-13.78125l-5.394531-43.144532 29.726562-31.734375c3.679688-3.929687 4.929688-9.542969 3.265625-14.664062-1.664063-5.117188-5.976563-8.921875-11.261719-9.9375l-42.699218-8.203125-20.996094-38.078125c-2.597656-4.710938-7.554688-7.636719-12.933594-7.636719-5.382812 0-10.335938 2.925781-12.933594 7.636719l-20.996094 38.078125-42.703124 8.203125c-5.28125 1.011719-9.597657 4.820312-11.261719 9.9375-1.660157 5.121093-.410157 10.734375 3.269531 14.664062l29.726562 31.734375-5.394531 43.144532c-.671875 5.339843 1.617188 10.621093 5.972657 13.78125 4.351562 3.164062 10.078124 3.710937 14.953124 1.421874l39.367188-18.460937 39.367188 18.460937c2 .9375 4.140624 1.398438 6.269531 1.398438zm0 0" fill="#ffa000"/><path d="m343.890625 63.855469c-1.660156-5.117188-5.976563-8.925781-11.257813-9.9375l-42.703124-8.203125-20.996094-38.078125c-2.597656-4.710938-7.554688-7.636719-12.933594-7.636719v150.140625l39.367188 18.460937c1.996093.9375 4.136718 1.398438 6.269531 1.398438 3.066406 0 6.117187-.953125 8.683593-2.820312 4.351563-3.160157 6.640626-8.441407 5.972657-13.78125l-5.394531-43.144532 29.726562-31.734375c3.679688-3.929687 4.929688-9.546875 3.265625-14.664062zm0 0" fill="#ee8700"/><path d="m511.277344 213.855469c-1.664063-5.117188-5.976563-8.925781-11.261719-9.941407l-42.703125-8.203124-20.996094-38.078126c-2.597656-4.710937-7.550781-7.636718-12.933594-7.636718-5.378906 0-10.335937 2.925781-12.933593 7.636718l-20.996094 38.078126-42.699219 8.203124c-5.285156 1.015626-9.597656 4.824219-11.261718 9.941407-1.664063 5.117187-.410157 10.730469 3.265624 14.660156l29.726563 31.734375-5.394531 43.148438c-.667969 5.339843 1.621094 10.617187 5.972656 13.777343 4.351562 3.164063 10.078125 3.710938 14.953125 1.425781l39.367187-18.464843 39.371094 18.464843c1.996094.9375 4.136719 1.398438 6.265625 1.398438 3.070313 0 6.117188-.957031 8.683594-2.820312 4.351563-3.164063 6.640625-8.441407 5.972656-13.78125l-5.394531-43.144532 29.726562-31.738281c3.679688-3.925781 4.933594-9.542969 3.269532-14.660156zm0 0" fill="#ee8700"/><path d="m229.246094 395.914062-42.699219-8.199218-20.996094-38.078125c-2.597656-4.710938-7.554687-7.640625-12.933593-7.640625-5.382813 0-10.335938 2.929687-12.933594 7.640625l-20.996094 38.078125-42.703125 8.199218c-5.285156 1.015626-9.597656 4.824219-11.261719 9.941407-1.660156 5.117187-.410156 10.734375 3.269532 14.660156l29.722656 31.734375-5.394532 43.148438c-.667968 5.339843 1.621094 10.617187 5.976563 13.78125 4.351563 3.160156 10.078125 3.710937 14.949219 1.421874l39.371094-18.464843 39.367187 18.464843c1.996094.9375 4.136719 1.398438 6.269531 1.398438 3.066406 0 6.113282-.957031 8.679688-2.820312 4.355468-3.164063 6.644531-8.441407 5.976562-13.78125l-5.398437-43.148438 29.726562-31.734375c3.679688-3.925781 4.929688-9.542969 3.269531-14.660156-1.660156-5.117188-5.976562-8.925781-11.261718-9.941407zm0 0" fill="#ffa000"/><path d="m436.015625 395.914062-42.703125-8.199218-20.996094-38.078125c-2.597656-4.710938-7.550781-7.640625-12.933594-7.640625-5.378906 0-10.332031 2.929687-12.933593 7.640625l-20.996094 38.078125-42.699219 8.199218c-5.285156 1.015626-9.597656 4.824219-11.261718 9.941407-1.664063 5.117187-.410157 10.734375 3.265624 14.660156l29.726563 31.734375-5.394531 43.148438c-.667969 5.339843 1.621094 10.617187 5.972656 13.78125 4.351562 3.160156 10.078125 3.710937 14.953125 1.421874l39.367187-18.464843 39.371094 18.464843c1.996094.9375 4.136719 1.398438 6.265625 1.398438 3.070313 0 6.117188-.957031 8.683594-2.820312 4.351563-3.164063 6.640625-8.441407 5.972656-13.78125l-5.394531-43.148438 29.726562-31.734375c3.679688-3.925781 4.929688-9.542969 3.265626-14.660156-1.660157-5.117188-5.972657-8.925781-11.257813-9.941407zm0 0" fill="#ee8700"/><path d="m127.984375 318.601562c1.996094.9375 4.136719 1.398438 6.269531 1.398438 3.066406 0 6.113282-.957031 8.683594-2.820312 4.351562-3.164063 6.640625-8.441407 5.972656-13.78125l-5.394531-43.144532 29.722656-31.738281c3.679688-3.925781 4.933594-9.542969 3.269531-14.660156-1.664062-5.117188-5.976562-8.925781-11.261718-9.941407l-42.703125-8.199218-20.996094-38.078125c-2.597656-4.710938-7.550781-7.640625-12.933594-7.640625-5.378906 0-10.335937 2.929687-12.933593 7.640625l-20.992188 38.074219-42.703125 8.203124c-5.285156 1.015626-9.597656 4.824219-11.261719 9.941407-1.660156 5.117187-.410156 10.730469 3.265625 14.660156l29.726563 31.734375-5.394532 43.148438c-.667968 5.339843 1.621094 10.617187 5.972657 13.777343 4.351562 3.164063 10.082031 3.710938 14.953125 1.425781l39.371094-18.464843zm0 0" fill="#ffa000"/></svg>