<?xml version="1.0"?>
<svg xmlns="http://www.w3.org/2000/svg" xmlns:xlink="http://www.w3.org/1999/xlink" version="1.1" id="Capa_1" x="0px" y="0px" viewBox="0 0 512 512" style="enable-background:new 0 0 512 512;" xml:space="preserve" width="512px" height="512px" class=""><g><path style="fill:#F3F3F3" d="M373.333,117.333H138.667C62.083,117.333,0,179.417,0,256s62.083,138.667,138.667,138.667h234.667  C449.917,394.667,512,332.583,512,256S449.917,117.333,373.333,117.333z" data-original="#CFD8DC" class="active-path" data-old_color="#f3f3f3"/><circle style="fill:#4CAF50;" cx="373.333" cy="256" r="96" data-original="#4CAF50"/><g>
	<path style="fill:#455A64" d="M117.333,309.333c-17.673,0-32-14.327-32-32v-42.667c0-17.673,14.327-32,32-32s32,14.327,32,32   v42.667C149.333,295.006,135.006,309.333,117.333,309.333z M117.333,224c-5.891,0-10.667,4.776-10.667,10.667v42.667   c0,5.891,4.776,10.667,10.667,10.667S128,283.224,128,277.333v-42.667C128,228.776,123.224,224,117.333,224z" data-original="#455A64" class=""/>
	<path style="fill:#455A64" d="M224,309.333c-4.037,0-7.728-2.279-9.536-5.888L192,258.517v40.149   c0,5.891-4.776,10.667-10.667,10.667c-5.891,0-10.667-4.776-10.667-10.667v-85.333c0.006-4.941,3.405-9.232,8.213-10.368   c4.819-1.186,9.812,1.151,11.989,5.611l22.464,44.907v-40.149c0-5.891,4.776-10.667,10.667-10.667   c5.891,0,10.667,4.776,10.667,10.667v85.333c-0.006,4.941-3.405,9.232-8.213,10.368C225.651,309.237,224.827,309.337,224,309.333z" data-original="#455A64" class=""/>
</g></g> </svg>
