<?xml version="1.0"?>
<svg xmlns="http://www.w3.org/2000/svg" xmlns:xlink="http://www.w3.org/1999/xlink" version="1.1" id="Capa_1" x="0px" y="0px" viewBox="0 0 512 512" style="enable-background:new 0 0 512 512;" xml:space="preserve" width="512px" height="512px" class=""><g><path style="fill:#F3F3F3" d="M373.333,117.333H138.667C62.083,117.333,0,179.417,0,256s62.083,138.667,138.667,138.667h234.667  C449.917,394.667,512,332.583,512,256S449.917,117.333,373.333,117.333z" data-original="#CFD8DC" class="active-path" data-old_color="#F2F2F2"/><circle style="fill:#F44336;" cx="138.667" cy="256" r="96" data-original="#F44336"/><g>
	<path style="fill:#455A64" d="M288,309.333c-17.673,0-32-14.327-32-32v-42.667c0-17.673,14.327-32,32-32c17.673,0,32,14.327,32,32   v42.667C320,295.006,305.673,309.333,288,309.333z M288,224c-5.891,0-10.667,4.776-10.667,10.667v42.667   c0,5.891,4.776,10.667,10.667,10.667c5.891,0,10.667-4.776,10.667-10.667v-42.667C298.667,228.776,293.891,224,288,224z" data-original="#455A64" class=""/>
	<path style="fill:#455A64" d="M352,309.333c-5.891,0-10.667-4.776-10.667-10.667v-85.333c0-5.891,4.776-10.667,10.667-10.667h32   c5.891,0,10.667,4.776,10.667,10.667c0,5.891-4.776,10.667-10.667,10.667h-21.333v74.667   C362.667,304.558,357.891,309.333,352,309.333z" data-original="#455A64" class=""/>
	<path style="fill:#455A64" d="M373.333,266.667H352c-5.891,0-10.667-4.776-10.667-10.667c0-5.891,4.776-10.667,10.667-10.667   h21.333c5.891,0,10.667,4.776,10.667,10.667C384,261.891,379.224,266.667,373.333,266.667z" data-original="#455A64" class=""/>
	<path style="fill:#455A64" d="M416,309.333c-5.891,0-10.667-4.776-10.667-10.667v-85.333c0-5.891,4.776-10.667,10.667-10.667h32   c5.891,0,10.667,4.776,10.667,10.667c0,5.891-4.776,10.667-10.667,10.667h-21.333v74.667   C426.667,304.558,421.891,309.333,416,309.333z" data-original="#455A64" class=""/>
	<path style="fill:#455A64" d="M437.333,266.667H416c-5.891,0-10.667-4.776-10.667-10.667c0-5.891,4.776-10.667,10.667-10.667   h21.333c5.891,0,10.667,4.776,10.667,10.667C448,261.891,443.224,266.667,437.333,266.667z" data-original="#455A64" class=""/>
</g></g> </svg>
